<svg width="30" height="31" viewBox="0 0 30 31" fill="none" xmlns="http://www.w3.org/2000/svg">
<path fill-rule="evenodd" clip-rule="evenodd" d="M14.645 12.6194C13.1918 12.6194 12.0098 13.7782 12.0098 15.2029C12.0098 16.627 13.1918 17.7859 14.645 17.7859C16.0982 17.7859 17.2802 16.627 17.2802 15.2029C17.2802 13.7782 16.0982 12.6194 14.645 12.6194Z" fill="#605DD4"/>
<path fill-rule="evenodd" clip-rule="evenodd" d="M18.9021 11.9949C18.3879 11.9949 17.9703 11.5866 17.9703 11.0813C17.9703 10.5772 18.3879 10.1684 18.9021 10.1684C19.4169 10.1684 19.8339 10.5772 19.8339 11.0813C19.8339 11.5866 19.4169 11.9949 18.9021 11.9949ZM14.6445 19.2255C12.3825 19.2255 10.5411 17.4208 10.5411 15.2025C10.5411 12.9849 12.3825 11.1796 14.6445 11.1796C16.9071 11.1796 18.7479 12.9849 18.7479 15.2025C18.7479 17.4208 16.9071 19.2255 14.6445 19.2255ZM17.9565 8.86841H11.3331C10.3653 8.86841 9.55827 9.15664 8.99787 9.70311C8.43567 10.2508 8.13867 11.0455 8.13867 12.0002V18.4572C8.13867 19.4261 8.44827 20.2331 9.03567 20.7913C9.60867 21.3372 10.4157 21.6255 11.3697 21.6255H17.9193C18.8973 21.6255 19.7139 21.3396 20.2791 20.7978C20.8497 20.2513 21.1509 19.4549 21.1509 18.4937V12.0002C21.1509 11.0655 20.8539 10.2778 20.2911 9.72253C19.7253 9.1637 18.9177 8.86841 17.9565 8.86841Z" fill="#605DD4"/>
<mask id="mask0" mask-type="alpha" maskUnits="userSpaceOnUse" x="0" y="0" width="30" height="30">
<path fill-rule="evenodd" clip-rule="evenodd" d="M0 0.588379H29.5493V29.5577H0V0.588379Z" fill="white"/>
</mask>
<g mask="url(#mask0)">
<path fill-rule="evenodd" clip-rule="evenodd" d="M22.6194 18.4937C22.6194 19.8519 22.1646 21.0049 21.3054 21.8272C20.4594 22.6372 19.2888 23.0648 17.9196 23.0648H11.37C10.0266 23.0648 8.8656 22.636 8.013 21.8243C7.1346 20.9884 6.6702 19.8243 6.6702 18.4572V12.0001C6.6702 9.26544 8.5446 7.42838 11.3328 7.42838H17.9568C19.3182 7.42838 20.4852 7.87132 21.333 8.70838C22.1748 9.53956 22.6194 10.6778 22.6194 12.0001V18.4937ZM14.775 0.588379C6.615 0.588379 0 7.0725 0 15.0725C0 23.0719 6.615 29.5578 14.775 29.5578C22.9338 29.5578 29.5494 23.0719 29.5494 15.0725C29.5494 7.0725 22.9338 0.588379 14.775 0.588379Z" fill="#605DD4"/>
</g>
</svg>
