<svg width="300" height="295" viewBox="0 0 300 295" fill="none" xmlns="http://www.w3.org/2000/svg">
<g opacity="0.2">
<path fill-rule="evenodd" clip-rule="evenodd" d="M131.999 128.896C134.173 128.512 136.229 129.26 138.17 131.141C138.945 131.942 140.066 133.62 141.54 136.173L144.183 141.216C144.643 142.162 144.96 143.134 145.136 144.131L145.513 146.269L145.864 148.262L146.568 152.251C146.853 153.867 147.351 155.174 148.068 156.173L150.074 159.638C150.703 160.703 151.102 161.71 151.269 162.659C151.353 163.134 151.318 163.63 151.165 164.146C151.101 164.598 150.904 164.854 150.575 164.912C149.587 165.086 148.643 164.958 147.744 164.526C146.55 163.806 145.379 161.976 144.231 159.039L143.126 156.067L142.219 152.99L141.212 147.278C140.835 145.137 139.766 142.405 138.01 139.086C136.058 135.504 134.373 133.838 132.952 134.088C131.578 134.33 130.381 135.303 129.364 137.003L128.078 140.102L125.349 145.812C123.656 148.956 122.43 153.075 121.666 158.167L121.365 160.206L120.775 162.666C120.124 164.794 119.276 165.95 118.235 166.134C116.815 166.384 115.804 166.06 115.207 165.162C114.608 164.266 114.144 162.866 113.809 160.965L113.257 157.832L112.489 154.734L110.315 147.407C109.118 143.947 107.924 142.322 106.738 142.531C105.455 142.757 104.391 144.633 103.546 148.16C103.143 150.045 102.746 152.928 102.353 156.816L102.114 161.707L102.458 165.316C102.693 166.648 102.982 167.747 103.332 168.613L104.928 172.667C105.113 173.712 105.078 174.623 104.823 175.403C104.569 176.181 104.157 176.621 103.587 176.722C102.352 176.939 101.315 176.608 100.475 175.727L99.5775 173.978C99.3099 173.29 99.0798 172.4 98.8874 171.308L98.1636 165.119L97.6021 161.105C96.5975 155.408 96.9241 150.601 98.5837 146.685L102.947 140.187C104.147 138.115 105.627 136.924 107.384 136.614C108.429 136.43 109.396 136.713 110.287 137.46C111.177 138.211 111.929 139.485 112.541 141.286C112.759 142.522 113.088 143.418 113.529 143.976L114.899 145.498C115.118 145.9 115.306 146.553 115.465 147.454L115.645 148.892L115.821 149.887L115.984 150.815L116.563 152.033L117.054 153.564L117.422 154.821L117.543 155.092L117.708 155.211L117.883 154.957L118.325 154.144L118.786 151.778C119.39 148.579 120.103 145.998 120.927 144.033L124.062 138.178L127.079 132.489C128.516 130.418 130.156 129.221 131.999 128.896" fill="white"/>
<path fill-rule="evenodd" clip-rule="evenodd" d="M158.649 150.796L159.158 148.264L159.198 146.408C159.222 145.713 159.355 145.073 159.593 144.487L160.291 143.034C160.539 142.495 160.8 141.611 161.072 140.379C161.14 139.923 161.429 139.624 161.942 139.485L162.855 139.249L164.451 138.302L165.227 138.532L166.11 138.966L169.136 139.46C169.778 139.493 170.213 140.151 170.439 141.432C170.64 142.573 170.313 143.217 169.458 143.368L168.565 143.304L166.717 142.824C165.931 142.521 165.346 142.405 164.965 142.472C164.254 142.598 163.636 143.397 163.114 144.873C163.004 145.089 162.866 145.832 162.697 147.096L162.65 149.327L162.941 150.979L163.296 152.992L163.499 154.142L163.702 155.292L163.879 156.298L163.71 158.254L163.855 160.749L164.121 162.257L164.644 163.723L165.018 164.841L165.003 165.584C164.891 166.345 164.505 166.932 163.844 167.345L163.131 167.471L162.349 167.609C161.205 167.514 160.563 167.061 160.419 166.248L160.399 164.475L160.424 163.361L160.386 161.888C160.301 161.409 160.063 160.834 159.671 160.162L158.992 159.395C158.758 159.189 158.617 158.942 158.567 158.656L158.713 157.816L158.536 156.81C158.426 156.19 157.99 155.526 157.23 154.82L156.378 154.158L155.586 153.408L154.342 151.778L153.064 151.19C152.419 150.859 152.04 150.532 151.935 150.203C151.817 149.534 151.862 148.958 152.072 148.478C152.282 147.999 152.787 147.686 153.595 147.544C154.261 147.426 155.051 147.608 155.968 148.088C157.11 148.725 158.002 149.627 158.649 150.796" fill="white"/>
<path fill-rule="evenodd" clip-rule="evenodd" d="M181.005 160.134L182.681 160.058C183.218 160.063 183.608 160.187 183.85 160.441L184.025 161.438L184.239 162.649L184.44 163.788C184.314 163.906 184.207 163.998 184.121 164.063C183.783 164.369 183.485 164.616 183.224 164.809L182.052 165.235C181.292 165.369 180.53 165.295 179.772 165.014C179.011 164.732 178.574 164.259 178.456 163.592C178.415 163.357 178.487 162.928 178.67 162.307L179.253 161.028C179.566 160.583 180.15 160.285 181.005 160.134" fill="white"/>
<path fill-rule="evenodd" clip-rule="evenodd" d="M221.988 106.419C225.595 105.783 228.629 106.321 231.086 108.031C233.188 109.414 234.413 111.074 234.755 113.013C234.922 113.959 234.808 114.709 234.417 115.265L233.314 116.921L233.245 118.615C233.236 119.397 233.031 119.895 232.629 120.112C231.869 120.246 231.072 120.24 230.239 120.096C229.405 119.953 228.922 119.5 228.789 118.747C228.714 118.321 229.027 117.671 229.729 116.793C230.43 115.916 230.811 115.228 230.871 114.729L230.922 113.773L230.76 112.853C230.28 111.82 229.262 111.123 227.708 110.763C226.24 110.343 224.663 110.28 222.976 110.577C222.302 110.696 221.798 110.944 221.466 111.32C221.135 111.697 221.07 112.453 221.27 113.59C221.471 114.729 221.987 115.861 222.823 116.983C225.574 119.822 228.166 122.714 230.595 125.659C231.894 127.189 233.374 129.338 235.035 132.099C236.698 134.861 237.667 137.025 237.942 138.588C238.72 142.999 237.69 147.018 234.854 150.645C232.274 153.789 228.539 155.791 223.649 156.653C219.802 157.331 216.418 156.459 213.493 154.038C211.072 151.968 209.627 149.603 209.158 146.943C208.749 144.619 209.151 142.049 210.37 139.239C211.694 135.922 213.567 134.048 215.989 133.621C217.175 133.412 218.105 133.542 218.775 134.011C219.165 134.285 219.429 134.803 219.562 135.562C219.655 136.086 219.319 136.682 218.556 137.354L216.734 138.263C215.385 138.943 214.43 140.334 213.871 142.44C213.545 143.919 213.489 145.274 213.707 146.509C214.143 148.979 215.455 150.73 217.646 151.764C218.807 152.245 219.999 152.547 221.222 152.675C222.443 152.801 223.813 152.732 225.334 152.464L226.401 152.276L228.111 151.974C228.38 151.829 228.641 151.513 228.899 151.029L229.369 149.108L231.577 147.471C233.38 146.026 233.923 143.288 233.211 139.251C232.918 137.589 232.266 135.967 231.253 134.382L230.398 133.284L228.294 130.939L225.286 127.208L223.541 124.798L222.14 122.695C221.777 122.026 221.341 121.491 220.829 121.09L219.46 119.57L218.337 117.785L217.374 115.237L216.411 112.69C216.152 111.218 216.523 109.855 217.526 108.601C218.553 107.49 220.04 106.762 221.988 106.419" fill="white"/>
<path fill-rule="evenodd" clip-rule="evenodd" d="M242.342 132.72C243.291 132.553 244.224 133.12 245.14 134.418C245.959 135.736 246.565 137.505 246.957 139.724L247.406 142.274L247.631 143.55L247.894 145.038C247.969 145.463 248.161 145.722 248.469 145.814L248.97 145.726C249.397 145.65 249.704 145.107 249.894 144.094C250.081 143.082 250.217 142.385 250.296 142.003C250.375 141.622 250.601 141.032 250.974 140.231C251.348 139.43 251.848 138.584 252.474 137.69C253.255 136.575 254.073 135.939 254.928 135.788C256.21 135.562 257.409 135.839 258.526 136.613C259.323 137.251 260.34 138.433 261.575 140.161L264.041 143.74C264.945 144.7 266.132 145.05 267.606 144.79C268.697 144.597 269.827 144.134 270.993 143.397C272.161 142.66 273.133 141.714 273.911 140.563L275.041 139.062C275.497 138.595 275.998 138.24 276.542 138C276.875 137.941 277.254 138.081 277.681 138.418C278.109 138.757 278.447 139.219 278.697 139.805C278.822 140.514 278.154 141.724 276.695 143.438L275.574 144.583L273.661 146.232L270.43 147.895C268.793 148.622 267.668 149.038 267.052 149.147C265.911 149.348 264.794 149.254 263.697 148.863C262.281 148.334 261.083 147.232 260.104 145.557L258.385 142.066C257.413 140.437 256.57 139.685 255.857 139.811C255.382 139.895 254.78 140.639 254.048 142.039C253.758 142.629 253.516 143.26 253.316 143.931C253.116 144.604 252.958 145.293 252.836 145.998C252.667 148.378 252.136 150.089 251.244 151.126C250.718 151.759 250.074 152.14 249.316 152.274C248.319 152.45 247.434 152.289 246.661 151.791C245.973 151.23 245.539 150.429 245.356 149.386L245.005 147.398L244.34 146.127L243.654 143.906L243.091 140.712L242.765 138.865L242.726 136.97L242.525 135.833L242.102 135.105L241.541 133.593C241.466 133.167 241.734 132.876 242.342 132.72" fill="white"/>
<path fill-rule="evenodd" clip-rule="evenodd" d="M283.695 123.152L282.169 124.081L280.614 125.678C280.262 126.181 280.027 126.798 279.912 127.527C279.795 128.259 279.742 129.063 279.751 129.943C279.76 130.823 279.831 131.643 279.965 132.402L280.267 134.112L280.818 135.997L281.554 137.263L281.982 138.436L281.956 139.542L281.977 140.493C282.103 141.206 282.54 141.802 283.285 142.282C284.03 142.762 284.926 142.91 285.97 142.726C287.916 142.383 289.657 141.148 291.192 139.014C293.045 136.486 293.698 133.653 293.145 130.519C292.986 129.616 292.556 128.713 291.859 127.808C291.303 126.878 290.658 126.135 289.924 125.578L287.138 123.94C285.664 123.367 284.517 123.105 283.695 123.152M283.358 119.171C284.688 118.937 285.663 118.913 286.284 119.096L290.591 121.863L294.265 124.374C295.866 125.952 296.87 127.904 297.28 130.23C298.059 134.647 297.022 138.624 294.17 142.162C291.833 145.021 289.526 146.653 287.247 147.055C283.543 147.708 280.702 146.594 278.726 143.711C277.777 142.213 277.042 139.994 276.523 137.049C276.029 134.247 275.765 132.334 275.731 131.312L275.837 128.576C275.955 125.912 276.632 123.786 277.869 122.197C279.106 120.608 280.937 119.598 283.358 119.171" fill="white"/>
<path fill-rule="evenodd" clip-rule="evenodd" d="M309.261 118.644L307.735 119.573L306.18 121.17C305.828 121.672 305.594 122.29 305.478 123.019C305.362 123.75 305.309 124.555 305.317 125.435C305.326 126.315 305.398 127.135 305.531 127.894L305.833 129.603L306.385 131.489L307.12 132.755L307.548 133.928L307.522 135.034L307.543 135.985C307.669 136.698 308.106 137.294 308.851 137.774C309.596 138.254 310.492 138.402 311.536 138.218C313.483 137.875 315.223 136.639 316.758 134.506C318.612 131.977 319.264 129.145 318.711 126.01C318.552 125.108 318.123 124.205 317.425 123.3C316.869 122.37 316.224 121.627 315.49 121.07L312.705 119.432C311.231 118.859 310.084 118.596 309.261 118.644M308.925 114.663C310.254 114.429 311.229 114.405 311.851 114.588L316.157 117.355L319.831 119.865C321.432 121.444 322.436 123.395 322.847 125.722C323.625 130.139 322.588 134.116 319.736 137.653C317.399 140.513 315.093 142.145 312.813 142.547C309.11 143.2 306.269 142.086 304.292 139.203C303.343 137.704 302.609 135.486 302.089 132.541C301.595 129.739 301.331 127.826 301.297 126.804L301.404 124.067C301.521 121.404 302.198 119.278 303.436 117.689C304.673 116.099 306.504 115.09 308.925 114.663" fill="white"/>
<path fill-rule="evenodd" clip-rule="evenodd" d="M367.703 72.7769C368.098 71.8388 365.611 68.8694 366.615 68.2253C368.125 67.254 371.921 69.5311 373.145 68.9402C374.276 68.3918 372.838 64.9692 374.174 64.3193C375.258 63.7904 379.258 66.0204 380.573 66.0099C383.661 65.983 381.239 62.9872 377.816 60.8523C376.116 59.7924 374.673 58.8557 372.538 58.7764C370.975 58.72 369.969 59.6402 369.442 60.9391C368.511 63.2357 366.38 63.1352 364.318 62.8123C362.335 62.5035 360.141 63.273 359.84 64.4252C359.355 66.2776 360.582 68.4845 361.83 70.3613C363.834 73.3747 366.596 75.4047 367.703 72.7769M421.312 155.036C427.634 162.128 425.304 173.316 416.175 179.416C412.277 182.022 406.138 183.754 400.443 184.163C403.353 183.652 406.401 182.715 409.548 181.193C420.801 175.744 420.791 165.136 419.415 159.714C418.211 154.969 414.958 157.368 415.391 159.482C416.463 164.713 417.227 173.152 406.781 178.518C397.079 183.498 381.52 177.963 375.056 174.685C372.083 173.18 371.353 176.829 374.794 179.184C377.035 182.225 382.552 185.009 387.425 187.007C394.681 189.983 407.142 190.948 419.788 182.71C428.986 176.72 430.954 168.205 429.262 159.786C428.751 157.248 426.696 153.668 425.076 152.43C422.193 150.223 418.991 152.434 421.312 155.036M436.552 184.26C423.707 200.888 397.279 206.096 380.138 197.97C367.882 192.161 359.301 178.437 354.665 172.324C351.468 168.105 345.471 169.162 345.471 169.162L251.642 185.707L258.463 174.83C259.095 173.828 258.529 173.203 257.203 173.437C255.878 173.671 254.292 174.674 253.661 175.677L246.84 186.554L239.602 187.83L246.424 176.953C247.054 175.951 246.488 175.326 245.162 175.56C243.836 175.794 242.252 176.797 241.622 177.799L234.8 188.677L222.403 190.863L229.224 179.986C229.853 178.984 229.289 178.359 227.963 178.593C226.637 178.827 225.051 179.83 224.423 180.832L217.601 191.709L208.642 193.289L215.464 182.412C216.094 181.41 215.528 180.785 214.202 181.019C212.878 181.253 211.292 182.256 210.662 183.258L203.841 194.135L194.883 195.715L201.703 184.838C202.335 183.836 201.769 183.212 200.443 183.445C199.117 183.679 197.533 184.683 196.903 185.685L190.08 196.562L169.083 200.264L175.904 189.387C176.535 188.385 175.969 187.761 174.643 187.995C173.317 188.228 171.733 189.232 171.103 190.234L164.281 201.111L157.043 202.387L163.865 191.51C164.495 190.508 163.929 189.884 162.603 190.118C161.277 190.351 159.693 191.355 159.063 192.357L152.241 203.234L146.163 204.306C146.163 204.306 146.025 204.332 145.81 204.387L152.691 193.415C153.296 192.453 152.753 191.854 151.481 192.079C150.212 192.303 148.693 193.264 148.09 194.226L119.154 240.361C118.551 241.322 119.091 241.919 120.362 241.695C121.634 241.471 123.153 240.511 123.756 239.549L140.741 212.466C140.797 220.504 139.109 234.601 129.623 250.738C117.997 270.518 84.629 282.13 63.579 271.598C49.7267 264.668 39.4988 248.382 38.722 227.861C38.0959 211.364 47.1425 192.157 50.8267 185.065C58.7695 189.031 65.848 186.743 58.9254 178.916C59.095 178.74 59.268 178.561 59.3841 178.38L71.7664 158.635C72.3959 157.631 71.8322 157.008 70.5061 157.242C69.1801 157.476 67.5955 158.478 66.9659 159.481L56.3722 176.371C55.5514 175.631 54.6379 174.854 53.5993 174.037C53.5623 174.008 53.5195 173.978 53.4828 173.951L65.7101 154.455C66.3397 153.451 65.7738 152.827 64.4496 153.06C63.1235 153.294 61.5374 154.298 60.9079 155.302L50.569 171.786C49.5904 171.087 48.5749 170.369 47.5142 169.63L59.6521 150.275C60.2816 149.271 59.7179 148.649 58.3918 148.882C57.0657 149.116 55.4793 150.118 54.8498 151.122L44.5523 167.543C43.5529 166.832 42.5445 166.102 41.5249 165.34L53.5958 146.095C54.2235 145.092 53.6595 144.467 52.3334 144.701C51.0073 144.935 49.423 145.938 48.7935 146.942L38.6492 163.115C37.6795 162.338 36.7195 161.521 35.7684 160.68L47.5377 141.915C48.1672 140.912 47.6014 140.287 46.2753 140.521C44.9492 140.755 43.365 141.758 42.7354 142.762L33.0788 158.159C32.1718 157.259 31.2824 156.332 30.4293 155.355L41.4796 137.736C42.1092 136.732 41.5451 136.107 40.219 136.341C38.893 136.575 37.3069 137.579 36.6774 138.582L28.0323 152.366C27.1332 151.149 26.2985 149.862 25.5204 148.523L36.6936 130.708C37.3232 129.704 36.7591 129.079 35.4331 129.313C34.107 129.547 32.5209 130.551 31.8932 131.554L23.5907 144.791C23.1723 143.854 22.7966 142.883 22.4465 141.887C22.5441 141.77 22.6673 141.66 22.7403 141.543L35.1229 121.8C35.7525 120.796 35.1884 120.171 33.8624 120.405C32.5363 120.639 30.9502 121.643 30.3225 122.646L21.1371 137.29C20.7039 135.365 20.4219 133.404 20.2366 131.428L31.8055 112.984C32.4368 111.98 31.871 111.356 30.5449 111.59C29.2188 111.824 27.6345 112.827 27.005 113.831L20.0315 124.947C20.0799 123.306 20.2013 121.676 20.3865 120.056C20.9244 119.682 21.3969 119.255 21.6707 118.819L34.053 99.0742C34.6825 98.0704 34.1185 97.4459 32.7924 97.6797C31.4663 97.9135 29.8821 98.9169 29.2525 99.9207L21.9617 111.545C24.5189 101.742 29.2632 93.3861 34.4866 89.3965C50.7162 76.9936 74.8387 75.4111 92.5661 82.7567C107.764 89.0535 119.39 102.492 123.95 108.08C126.259 110.91 132.267 109.851 132.267 109.851L312.886 78.0031L324.664 75.9263C324.664 75.9263 328.71 75.7793 330.154 71.7378C332.499 65.1743 338.166 51.0138 351.147 40.2886C359.421 33.4505 369.664 28.092 381.101 26.2215L373.46 38.4023C372.831 39.4061 373.395 40.0306 374.723 39.7964C376.047 39.5629 377.633 38.5593 378.261 37.5558L385.719 25.6662C387.253 25.5476 388.805 25.4932 390.376 25.5089L380.903 40.6161C380.271 41.6184 380.835 42.2429 382.163 42.0087C383.488 41.7752 385.074 40.7716 385.702 39.7699L394.518 25.7145C395.762 25.8233 397.017 25.9752 398.281 26.1726L387.772 42.9291C387.143 43.9329 387.707 44.5574 389.033 44.3236C390.359 44.0897 391.945 43.0861 392.575 42.0823L402.092 26.9055C403.343 27.1931 404.604 27.5354 405.866 27.9168L393.83 47.1088C393.199 48.1129 393.765 48.7371 395.091 48.5033C396.415 48.2698 398.001 47.2661 398.631 46.2624L409.399 29.0944C410.637 29.555 411.884 30.0723 413.135 30.6281C412.784 30.9208 412.468 31.2278 412.271 31.5458L404.845 43.3811C401.911 43.1219 399.292 45.206 402.126 47.7167L399.887 51.2889C399.257 52.2926 399.821 52.9172 401.149 52.683C402.473 52.4495 404.059 51.4459 404.687 50.4424L405.21 49.6094C406.365 50.171 407.465 50.761 408.512 51.3792L405.945 55.4704C405.315 56.4724 405.879 57.0969 407.205 56.8631C408.531 56.6293 410.117 55.6256 410.746 54.624L411.54 53.3566C412.586 54.1044 413.572 54.8795 414.487 55.6878L412.003 59.6501C411.374 60.6539 411.937 61.2766 413.263 61.0428C414.588 60.8093 416.174 59.8075 416.804 58.8037L417.133 58.2786C418.039 59.2762 418.863 60.303 419.608 61.3589L418.058 63.8305C417.43 64.834 417.994 65.4585 419.32 65.2247C420.018 65.1015 420.78 64.7591 421.443 64.3214C422.365 66.0176 423.108 67.764 423.67 69.5443L422.845 70.8582C422.216 71.862 422.781 72.4844 424.106 72.2509C424.186 72.2368 424.271 72.1974 424.353 72.1772C424.408 72.4339 424.472 72.6908 424.521 72.9485C424.884 74.8652 425.046 76.8078 425.056 78.7473L424.416 79.7661C423.912 80.5676 424.182 81.1184 424.985 81.1926C424.416 89.6899 420.786 97.9842 415.662 104.038C411.291 109.202 415.467 111.928 419.89 107.653C424.093 103.591 427.473 97.2628 429.282 90.0849C429.977 89.6659 430.589 89.1415 430.926 88.6057L441.682 71.4549C441.712 73.9235 441.553 76.4124 441.23 78.9019C440.192 79.3289 439.18 80.0812 438.707 80.836L426.325 100.579C425.694 101.585 426.259 102.207 427.585 101.973C428.91 101.74 430.496 100.738 431.125 99.7323L439.936 85.6873C439.208 88.5559 438.269 91.3999 437.124 94.1826C432.502 105.424 421.981 116.715 416.728 123.865C407.834 135.974 410.419 140.805 414.205 138.483C416.715 136.944 420.592 133.655 424.579 129.698C428.506 131.391 434.971 135.15 439.011 142.659C445.49 154.703 446.565 171.295 436.552 184.26M419.55 33.886C419.725 33.9864 419.89 34.096 420.064 34.1985C419.331 34.6242 418.678 35.1669 418.328 35.7256L411.761 46.1961C410.684 45.6094 409.555 45.0658 408.379 44.5567L416.201 32.0869C417.316 32.6519 418.43 33.2394 419.55 33.886M426.094 38.3926C425.372 38.8163 424.732 39.355 424.386 39.9054L417.862 50.3062C416.92 49.5234 415.905 48.7889 414.852 48.08L422.567 35.7791C423.808 36.6144 424.984 37.4856 426.094 38.3926M431.18 43.2651C430.882 43.5279 430.621 43.8045 430.444 44.0853L423.147 55.7196C422.358 54.7145 421.486 53.7485 420.565 52.8082L428.363 40.3726C429.363 41.3068 430.302 42.2721 431.18 43.2651M436.129 50.1688C435.764 50.4695 435.437 50.786 435.23 51.1132L427.641 63.2154C426.999 61.7644 426.249 60.3399 425.393 58.9529L433.469 46.0708C434.453 47.3977 435.332 48.7675 436.129 50.1688M439.56 58.0153C438.442 58.4206 437.31 59.2092 436.798 60.0215L430.005 70.8524C429.795 69.7359 429.537 68.6223 429.212 67.5148L437.901 53.6619C438.537 55.0859 439.087 56.5381 439.56 58.0153M441.486 67.6371C440.3 68.0093 439.05 68.843 438.507 69.7078L430.567 82.367C430.725 80.4636 430.751 78.5383 430.665 76.6105L440.419 61.0579C440.936 63.2137 441.287 65.4139 441.486 67.6371M432.47 121.035C433.628 119.611 434.716 118.198 435.673 116.828C452.718 92.4345 464.578 50.7175 423.614 24.5904C396.181 7.09279 364.866 16.6451 346.318 31.7169C333.381 42.2283 326.703 55.7305 324.318 62.0985C322.896 65.8959 318.174 66.7286 318.174 66.7286L133.717 99.2533C133.717 99.2533 130.499 99.8207 127.89 96.7003C123.099 90.9766 110.956 77.4209 93.8143 71.2905C74.0119 64.2076 43.435 66.3937 26.8859 82.2928C0.0756363 108.053 8.11855 139.998 20.9947 159.38C25.6819 166.433 33.7237 172.662 40.9806 178.119C36.6114 186.677 31.5992 200.523 29.5616 208.944C24.0912 231.562 28.5144 271.093 63.5456 283.552C85.5532 291.377 114.474 281.106 129.809 266.715C143.943 253.45 148.79 230.125 149.882 219.394C150.504 213.271 155.121 212.457 155.121 212.457L340.585 179.754C340.585 179.754 345.913 178.815 349.195 184.045C353.607 191.081 362.75 204.022 377.699 209.197C400.283 217.015 431.172 211.002 443.644 193.316C466.327 161.15 448.45 129.722 432.47 121.035M139.445 194.201C138.173 194.425 136.655 195.387 136.051 196.349L107.115 242.483C106.512 243.445 107.054 244.042 108.324 243.818C109.595 243.593 111.114 242.634 111.717 241.672L140.652 195.537C141.255 194.576 140.714 193.977 139.445 194.201" fill="white"/>
</g>
</svg>
