<svg height="512" viewBox="0 0 60 60" width="512" xmlns="http://www.w3.org/2000/svg"><g id="Page-1" fill="none" fill-rule="evenodd"><g id="014---Clean-Clothes" fill="rgb(0,0,0)" fill-rule="nonzero" transform="translate(-1 -1)"><path id="Shape" d="m31 17.63c-3.917 0-7.237-1.759-7.893-4.174-.1383527-.5298908-.4958552-.9757687-.983-1.226-.5129057-.2680427-1.1147212-.3086716-1.659-.112l-9.358 3.325c-.6611725.2267816-1.221299.6792732-1.582 1.278l-8.088 13.318c-.66514396 1.082433-.56786037 2.4681211.242 3.447 1.59 1.929 6.788 3.814 12.321 4.523v17.991c0 3.687 9.04 5 17.5 5 10.486 0 16.5-1.822 16.5-5v-18.143c5.091-.825 10.876-2.612 12.319-4.368.8109829-.9785314.909473-2.3646291.245-3.448l-8.086-13.315c-.3589188-.5986826-.9178045-1.0513163-1.578-1.278l-2.66-.948c1.3674392-1.0315794 3.0481889-1.5612274 4.76-1.5.5522847 0 1-.4477153 1-1s-.4477153-1-1-1c-7.878 0-8-8.634-8-9 .0074558-.55228473-.4342153-1.00604412-.9865-1.01349996s-1.0060441.43421523-1.0135.98649996v.017.01c0 .368-.091 9-8 9-.5522847 0-1 .4477153-1 1s.4477153 1 1 1c1.3026245-.028247 2.5920861.265437 3.754.855-.899 2.21-4.06 3.775-7.754 3.775zm19.766.129 8.091 13.323c.2190899.3557375.1869034.811578-.08 1.133-.762.928-5.142 2.676-10.777 3.618v-4.833c0-.5522847-.4477153-1-1-1s-1 .4477153-1 1v25c0 .94-3.651 3-14.5 3-11.684 0-15.5-2.231-15.5-3v-25c0-.5522847-.4477153-1-1-1s-1 .4477153-1 1v4.994c-5.625-.752-9.826-2.625-10.781-3.783-.26453429-.3225529-.29429123-.7777536-.074-1.132l8.092-13.324c.1197807-.1993614.3071403-.3491072.528-.422l9.41-3.361c.9 3.331 4.944 5.658 9.825 5.658 4.346 0 8.019-1.847 9.387-4.57 2.552 2.579 2.613 6.691 2.613 6.94-.0074558.5522847.4342153 1.0060441.9865 1.0135.5522847.0074558 1.0060441-.4342153 1.0135-.9865v-.017-.01c.0478382-2.0886325.6552972-4.1261583 1.759-5.9l3.488 1.238c.2174061.0744276.4013288.2236212.519.421zm-6.766-10.793c.8196277 2.16336937 2.4004981 3.9533157 4.446 5.034-2.0455019 1.0806843-3.6263723 2.8706306-4.446 5.034-.8196277-2.1633694-2.4004981-3.9533157-4.446-5.034 2.0455019-1.0806843 3.6263723-2.87063063 4.446-5.034z"/><path id="Shape" d="m35 38c0-.286.1-7 6-7 .5522847 0 1-.4477153 1-1s-.4477153-1-1-1c-5.9 0-6-6.716-6-7v-.006c-.0010718-.3572656-.1926611-.6868208-.5025981-.8645254s-.6911348-.176561-1 .003-.4984737.5102598-.4974019.8675254c0 .286-.1 7-6 7-.5522847 0-1 .4477153-1 1s.4477153 1 1 1c5.9 0 6 6.716 6 7v.006c.0016569.5522847.4507153.9986568 1.003.997.5522847-.0016569.9986568-.4507153.997-1.003zm-4.026-8c1.3420344-.8186798 2.3987701-2.0315162 3.026-3.473.6272299 1.4414838 1.6839656 2.6543202 3.026 3.473-1.3420344.8186798-2.3987701 2.0315162-3.026 3.473-.6272299-1.4414838-1.6839656-2.6543202-3.026-3.473z"/><path id="Shape" d="m38 40v2c0 .5522847.4477153 1 1 1s1-.4477153 1-1v-2c0-.5522847-.4477153-1-1-1s-1 .4477153-1 1z"/><path id="Shape" d="m39 45c-.5522847 0-1 .4477153-1 1v2c0 .5522847.4477153 1 1 1s1-.4477153 1-1v-2c0-.5522847-.4477153-1-1-1z"/><path id="Shape" d="m43 43h-2c-.5522847 0-1 .4477153-1 1s.4477153 1 1 1h2c.5522847 0 1-.4477153 1-1s-.4477153-1-1-1z"/><path id="Shape" d="m37 43h-2c-.5522847 0-1 .4477153-1 1s.4477153 1 1 1h2c.5522847 0 1-.4477153 1-1s-.4477153-1-1-1z"/></g></g></svg>